<?xml version="1.0" standalone="no"?>
<!DOCTYPE svg PUBLIC "-//W3C//DTD SVG 20010904//EN"
 "http://www.w3.org/TR/2001/REC-SVG-20010904/DTD/svg10.dtd">
<svg version="1.0" xmlns="http://www.w3.org/2000/svg"
 width="344.000000pt" height="344.000000pt" viewBox="0 0 344.000000 344.000000"
 preserveAspectRatio="xMidYMid meet">
<metadata>
Created by potrace 1.14, written by Peter Selinger 2001-2017
</metadata>
<g transform="translate(0.000000,344.000000) scale(0.100000,-0.100000)"
fill="#000000" stroke="none">
<path d="M1543 3382 c-72 -33 -287 -137 -477 -233 l-346 -174 87 -8 c119 -12
1573 -14 1748 -3 l140 9 -355 176 c-369 184 -580 279 -634 287 -23 4 -65 -10
-163 -54z"/>
<path d="M737 2853 c-4 -3 -7 -246 -7 -540 l0 -533 440 0 440 0 0 225 0 225
-182 0 c-205 0 -253 8 -271 47 -10 22 -8 28 11 43 37 30 116 35 597 35 345 0
474 -3 517 -13 59 -14 79 -31 71 -62 -10 -38 -49 -45 -280 -48 l-223 -3 0
-230 0 -229 148 5 c81 4 269 10 419 14 149 5 276 11 281 15 5 3 12 156 15 343
4 186 10 422 14 526 l6 187 -995 0 c-547 0 -998 -3 -1001 -7z"/>
<path d="M735 1678 c-3 -7 -4 -251 -3 -543 l3 -530 995 0 995 0 0 540 0 540
-437 3 -438 2 0 -250 0 -250 184 0 c101 0 208 -5 237 -10 92 -17 112 -71 37
-101 -44 -17 -924 -26 -1042 -10 -88 12 -123 33 -112 68 12 39 51 47 259 51
l197 4 0 249 0 249 -435 0 c-339 0 -437 -3 -440 -12z"/>
<path d="M1275 509 c-382 -6 -525 -14 -525 -29 0 -13 253 -143 611 -315 l346
-166 234 112 c274 130 675 331 704 353 11 8 17 17 14 21 -22 21 -746 34 -1384
24z"/>
</g>
</svg>
