<svg width="65" height="64" viewBox="0 0 65 64" fill="none" xmlns="http://www.w3.org/2000/svg">
<path d="M3 32C3 15.4315 16.4315 2 33 2C49.5685 2 63 15.4315 63 32C63 34.5647 62.6782 37.0543 62.0727 39.4305C61.7574 40.6678 60.3397 41.1961 59.2339 40.5577C58.4112 40.0827 58.0361 39.1029 58.2611 38.18C58.744 36.1992 59 34.1295 59 32C59 17.6406 47.3594 6 33 6C18.6406 6 7 17.6406 7 32C7 46.3594 18.6406 58 33 58C41.8094 58 49.5955 53.6188 54.2982 46.9164C54.9278 46.0192 56.1349 45.6967 57.0841 46.2447C58.0489 46.8017 58.3786 48.0436 57.748 48.9619C52.3409 56.8359 43.2735 62 33 62C16.4315 62 3 48.5685 3 32Z" fill="#A71C1C"/>
<path d="M19 19.0002L45.345 45.3452" stroke="#A71C1C" stroke-width="4" stroke-linecap="round"/>
<path d="M19 45.345L45.345 19" stroke="#A71C1C" stroke-width="4" stroke-linecap="round"/>
</svg>
