<svg viewBox="0 0 36 36" fill="none" xmlns="http://www.w3.org/2000/svg">
<path fill-rule="evenodd" clip-rule="evenodd" d="M14.6294 5.68038C14.2884 5.97092 14.118 6.11622 13.9359 6.23824C13.5185 6.51796 13.0498 6.7121 12.5569 6.80941C12.3419 6.85187 12.1186 6.86968 11.6721 6.90531C10.5502 6.99486 9.9892 7.03961 9.5212 7.20492C8.43872 7.58726 7.58726 8.43872 7.20492 9.5212C7.03961 9.9892 6.99486 10.5502 6.90531 11.6721C6.86968 12.1186 6.85187 12.3419 6.80941 12.5569C6.7121 13.0498 6.51796 13.5185 6.23824 13.9359C6.11622 14.118 5.97094 14.2884 5.68038 14.6294C4.95037 15.486 4.58534 15.9143 4.37131 16.3621C3.87623 17.398 3.87623 18.602 4.37131 19.6379C4.58536 20.0857 4.95037 20.514 5.68038 21.3706C5.9709 21.7115 6.11622 21.8821 6.23824 22.0641C6.51796 22.4814 6.7121 22.9501 6.80941 23.4431C6.85187 23.6581 6.86968 23.8814 6.90531 24.3279C6.99486 25.4498 7.03961 26.0108 7.20492 26.4788C7.58726 27.5613 8.43872 28.4128 9.5212 28.7951C9.9892 28.9603 10.5502 29.0051 11.6721 29.0947C12.1186 29.1303 12.3419 29.1482 12.5569 29.1906C13.0498 29.2879 13.5185 29.4821 13.9359 29.7618C14.118 29.8838 14.2884 30.0291 14.6294 30.3196C15.486 31.0497 15.9143 31.4147 16.3621 31.6287C17.398 32.1238 18.602 32.1238 19.6379 31.6287C20.0857 31.4147 20.514 31.0497 21.3706 30.3196C21.7115 30.0291 21.8821 29.8838 22.0641 29.7618C22.4814 29.4821 22.9501 29.2879 23.4431 29.1906C23.6581 29.1482 23.8814 29.1303 24.3279 29.0947C25.4498 29.0051 26.0108 28.9603 26.4788 28.7951C27.5613 28.4128 28.4128 27.5613 28.7951 26.4788C28.9603 26.0108 29.0051 25.4498 29.0947 24.3279C29.1303 23.8814 29.1482 23.6581 29.1906 23.4431C29.2879 22.9501 29.4821 22.4814 29.7618 22.0641C29.8838 21.8821 30.0291 21.7115 30.3196 21.3706C31.0497 20.514 31.4147 20.0857 31.6287 19.6379C32.1238 18.602 32.1238 17.398 31.6287 16.3621C31.4147 15.9143 31.0497 15.486 30.3196 14.6294C30.0291 14.2884 29.8838 14.118 29.7618 13.9359C29.4821 13.5185 29.2879 13.0498 29.1906 12.5569C29.1482 12.3419 29.1303 12.1186 29.0947 11.6721C29.0051 10.5502 28.9603 9.9892 28.7951 9.5212C28.4128 8.43872 27.5613 7.58726 26.4788 7.20492C26.0108 7.03961 25.4498 6.99486 24.3279 6.90531C23.8814 6.86968 23.6581 6.85187 23.4431 6.80941C22.9501 6.7121 22.4814 6.51796 22.0641 6.23824C21.8821 6.11622 21.7115 5.97094 21.3706 5.68038C20.514 4.95037 20.0857 4.58536 19.6379 4.37131C18.602 3.87623 17.398 3.87623 16.3621 4.37131C15.9143 4.58534 15.486 4.95037 14.6294 5.68038ZM24.1229 15.0084C24.5678 14.5634 24.5678 13.842 24.1229 13.397C23.678 12.9521 22.9564 12.9521 22.5115 13.397L15.7212 20.1874L13.4884 17.9546C13.0435 17.5097 12.3221 17.5097 11.8771 17.9546C11.4321 18.3996 11.4321 19.121 11.8771 19.566L14.9155 22.6045C15.3604 23.0494 16.0819 23.0494 16.5269 22.6045L24.1229 15.0084Z" fill="currentColor" />
</svg>
