<svg viewBox="0 0 36 36" fill="none" xmlns="http://www.w3.org/2000/svg">
<path d="M29 18C29 24.0751 24.0751 29 18 29C11.9249 29 7 24.0751 7 18C7 11.9249 11.9249 7 18 7C24.0751 7 29 11.9249 29 18Z" fill="currentColor" />
<path fill-rule="evenodd" clip-rule="evenodd" d="M18 1.875C18.6213 1.875 19.125 2.37868 19.125 3V4.5C19.125 5.12132 18.6213 5.625 18 5.625C17.3787 5.625 16.875 5.12132 16.875 4.5V3C16.875 2.37868 17.3787 1.875 18 1.875ZM6.59792 6.59792C7.03725 6.15858 7.74957 6.15858 8.1889 6.59792L8.77816 7.18717C9.2175 7.62651 9.2175 8.33881 8.77816 8.77816C8.33881 9.2175 7.62651 9.2175 7.18717 8.77816L6.59792 8.1889C6.15858 7.74957 6.15858 7.03725 6.59792 6.59792ZM29.4017 6.5983C29.841 7.03764 29.841 7.74996 29.4017 8.18929L28.8125 8.77855C28.3731 9.21789 27.6607 9.21789 27.2214 8.77855C26.7821 8.3392 26.7821 7.6269 27.2214 7.18756L27.8108 6.5983C28.2501 6.15897 28.9623 6.15897 29.4017 6.5983ZM1.875 18C1.875 17.3787 2.37868 16.875 3 16.875H4.5C5.12132 16.875 5.625 17.3787 5.625 18C5.625 18.6213 5.12132 19.125 4.5 19.125H3C2.37868 19.125 1.875 18.6213 1.875 18ZM30.375 18C30.375 17.3787 30.8787 16.875 31.5 16.875H33C33.6213 16.875 34.125 17.3787 34.125 18C34.125 18.6213 33.6213 19.125 33 19.125H31.5C30.8787 19.125 30.375 18.6213 30.375 18ZM27.2214 27.2214C27.6607 26.7821 28.3731 26.7821 28.8125 27.2214L29.4017 27.8108C29.841 28.2501 29.841 28.9623 29.4017 29.4017C28.9623 29.841 28.2501 29.841 27.8108 29.4017L27.2214 28.8125C26.7821 28.3731 26.7821 27.6607 27.2214 27.2214ZM8.77816 27.2218C9.2175 27.6612 9.2175 28.3735 8.77816 28.8129L8.1889 29.4021C7.74957 29.8414 7.03725 29.8414 6.59792 29.4021C6.15858 28.9628 6.15858 28.2504 6.59792 27.8111L7.18717 27.2218C7.62651 26.7825 8.33881 26.7825 8.77816 27.2218ZM18 30.375C18.6213 30.375 19.125 30.8787 19.125 31.5V33C19.125 33.6213 18.6213 34.125 18 34.125C17.3787 34.125 16.875 33.6213 16.875 33V31.5C16.875 30.8787 17.3787 30.375 18 30.375Z" fill="currentColor" />
</svg>
