<svg  viewBox="0 0 56 54" fill="none" xmlns="http://www.w3.org/2000/svg">
<path fill-rule="evenodd" clip-rule="evenodd" d="M2.50524 53.9193C1.1258 53.9193 0 52.7932 0 51.4137V31.6376C0 30.2581 1.12154 29.132 2.50524 29.132H7.26275V41.5279C7.26275 42.2419 8.34786 42.2416 8.34786 41.5279V29.132H12.9833C14.3667 29.132 15.4843 30.2509 15.4843 31.6376V51.4137C15.4843 52.7932 14.3627 53.9193 12.979 53.9193H2.50524ZM10.4013 51.1785C7.61942 51.1785 7.62467 46.9545 10.4013 46.9545C13.1779 46.9545 13.1831 51.1785 10.4013 51.1785Z" fill="currentColor" />
<path fill-rule="evenodd" clip-rule="evenodd" d="M34.7714 52.3497H17.2387C16.9804 52.3497 15.0825 51.364 14.7108 51.1829C14.5254 51.0924 14.4033 50.9027 14.4033 50.6943V32.3065C14.4033 30.7187 21.5099 32.085 21.2635 19.5673C21.2408 18.4139 21.2861 17.1296 22.1543 16.5236C22.6924 16.1482 23.434 16.139 24.3478 16.4964C26.3196 17.2698 27.7981 20.2682 27.8572 23.619C27.907 26.2601 27.7892 29.0501 25.9895 31.7638H39.4298C39.5614 31.7638 39.6687 31.8008 39.7517 31.8609C41.0157 32.1933 41.9485 33.3443 41.9485 34.7126C41.9485 35.8837 41.2651 36.896 40.2771 37.3714C41.9485 38.9363 41.2693 41.7296 39.0794 42.359C40.68 44.1279 39.6123 46.9895 37.2353 47.2648C38.9465 49.3149 37.1759 52.3635 34.903 52.3635C34.8561 52.3635 34.8121 52.3586 34.7714 52.3497Z" fill="currentColor" />
<path opacity="0.7" d="M34.4409 28.6228V8.6308H40.8249C43.4009 8.6308 45.2769 9.15347 46.4529 10.1988C47.6476 11.2441 48.2449 12.6815 48.2449 14.5108C48.2449 15.5935 48.0022 16.6108 47.5169 17.5628C47.0316 18.5148 46.2196 19.2801 45.0809 19.8588C43.9609 20.4375 42.4302 20.7268 40.4889 20.7268H38.6689V28.6228H34.4409ZM32.2009 25.6268V22.9108H42.9809V25.6268H32.2009ZM32.2009 20.7268V17.2548H40.4049V20.7268H32.2009ZM40.0689 17.2548C40.8716 17.2548 41.5622 17.1708 42.1409 17.0028C42.7196 16.8161 43.1676 16.5268 43.4849 16.1348C43.8022 15.7428 43.9609 15.2481 43.9609 14.6508C43.9609 13.7921 43.6902 13.1575 43.1489 12.7468C42.6076 12.3175 41.7582 12.1028 40.6009 12.1028H38.6689V17.2548H40.0689Z" fill="currentColor" />
<path fill-rule="evenodd" clip-rule="evenodd" d="M44.1196 33.5324C42.7857 33.5324 42.4632 31.6565 43.7232 31.2158C49.6436 29.144 53.6119 23.5255 53.6119 17.2563C53.6119 9.09912 46.9766 2.46375 38.8193 2.46375C31.9822 2.46375 26.0739 7.09295 24.4497 13.7359C24.076 15.2649 21.7568 14.6933 22.1292 13.1702C24.0172 5.45856 30.881 0.0805664 38.8193 0.0805664C48.2947 0.0805664 55.9997 7.78563 55.9997 17.2609C55.9997 24.4315 51.6048 31.5328 44.4756 33.4858C44.3604 33.5173 44.2393 33.5321 44.1196 33.5321V33.5324Z" fill="currentColor" />
</svg>
