<svg viewBox="0 0 36 36" fill="none" xmlns="http://www.w3.org/2000/svg">
<path d="M31.4526 20.1862L31.7735 16.7768C32.0255 14.0992 32.1515 12.7603 31.6934 12.2069C31.4456 11.9075 31.1086 11.7241 30.7484 11.6924C30.0824 11.6339 29.2461 12.5861 27.5733 14.4903C26.7083 15.4751 26.2758 15.9675 25.7932 16.0438C25.526 16.0859 25.2535 16.0425 25.0066 15.9183C24.5611 15.6941 24.264 15.0854 23.6699 13.8679L20.5383 7.45079C19.4157 5.15027 18.8543 4 18 4C17.1457 4 16.5843 5.15027 15.4617 7.4508L12.3301 13.8679C11.736 15.0854 11.4389 15.6941 10.9934 15.9183C10.7465 16.0425 10.4741 16.0859 10.2067 16.0438C9.72421 15.9675 9.29168 15.4751 8.42662 14.4903C6.75391 12.5861 5.91755 11.6339 5.25158 11.6924C4.89132 11.7241 4.55437 11.9075 4.30658 12.2069C3.84852 12.7603 3.97452 14.0992 4.22653 16.7768L4.5474 20.1862C5.07611 25.8039 5.34047 28.6127 6.99612 30.3063C8.65179 32 11.1332 32 16.0961 32H19.9039C24.8667 32 27.3482 32 29.0039 30.3063C30.6595 28.6127 30.9238 25.8039 31.4526 20.1862Z" fill="currentColor" />
</svg>
