<svg width="26" height="34" viewBox="0 0 26 34" fill="none" xmlns="http://www.w3.org/2000/svg">
<path d="M13 0C5.83254 0 0 5.91035 0 13.1734C0 15.9466 0.843389 18.6005 2.46108 20.8775L11.5147 33.2465C11.8647 33.7206 12.416 34 13 34H13.0019C13.5859 34 14.1372 33.7188 14.4872 33.2446L23.9071 20.3335C25.2765 18.2017 26 15.7261 26 13.1734C26 5.91035 20.1675 0 13 0ZM13 18.8192C9.92779 18.8192 7.42857 16.2866 7.42857 13.1734C7.42857 10.0602 9.92779 7.52767 13 7.52767C16.0722 7.52767 18.5714 10.0602 18.5714 13.1734C18.5714 16.2866 16.0722 18.8192 13 18.8192Z" fill="#E46821"/>
</svg>
