<svg width="21" height="27" viewBox="0 0 21 27" fill="none" xmlns="http://www.w3.org/2000/svg">
<path fill="currentColor" d="M10.3886 0C4.66092 0 0 4.66092 0 10.3886C0 12.5756 0.673972 14.6684 1.96671 16.4641L9.20163 26.2183C9.48133 26.5922 9.92191 26.8125 10.3886 26.8125H10.3901C10.8568 26.8125 11.2974 26.5908 11.5771 26.2168L19.1047 16.0351C20.199 14.3539 20.7772 12.4016 20.7772 10.3886C20.7772 4.66092 16.1163 0 10.3886 0ZM10.3886 14.8409C7.93353 14.8409 5.93635 12.8437 5.93635 10.3886C5.93635 7.93353 7.93353 5.93635 10.3886 5.93635C12.8437 5.93635 14.8409 7.93353 14.8409 10.3886C14.8409 12.8437 12.8437 14.8409 10.3886 14.8409Z"/>
</svg>
