<svg width="47" height="47" viewBox="0 0 47 47" fill="none" xmlns="http://www.w3.org/2000/svg">
<g clip-path="url(#clip0_736_5133)">
<path d="M30.7157 21.2415H30.339C30.1393 21.6622 29.899 22.0621 29.6216 22.4353C28.9807 23.2666 28.2518 24.0248 27.4477 24.6965C26.9096 25.1523 26.3285 25.6082 25.6972 26.0532C27.3632 25.8449 29.0405 25.7422 30.7193 25.7456C36.4947 25.7456 40.7276 26.8708 42.7939 28.1226C40.7276 29.3743 36.4947 30.4959 30.7193 30.4959C26.4146 30.4959 22.9924 29.8772 20.6751 29.0487C20.3558 29.2079 20.0365 29.3635 19.7137 29.5154L19.2868 29.7072C18.6961 29.9797 18.0982 30.2342 17.4932 30.4705L16.6646 30.7889C17.9165 33.5602 24.3555 35.0037 30.7265 35.0037C37.822 35.0037 45.0108 33.1948 45.0108 29.7904V26.4547C45 23.0323 37.8112 21.2415 30.7157 21.2415ZM22.8059 32.9994C22.2785 32.8728 21.7799 32.7389 21.3208 32.5978L20.9764 31.451L21.7656 30.5899C22.2606 30.7274 22.7772 30.8504 23.3153 30.9517L23.656 32.037L22.8059 32.9994ZM31.0565 33.8243H29.9803H29.74H29.4422L28.8898 32.8547L29.557 31.6789H30.3821H30.9704L31.634 32.8366L31.0565 33.8243ZM37.8004 33.1767L36.9718 32.2252L37.3305 31.1398C37.865 31.0421 38.3816 30.9372 38.8838 30.8142L39.6658 31.6825L39.2784 32.833C38.812 32.956 38.3206 33.0717 37.8004 33.1767Z" fill="white"/>
<path d="M29.5429 17.768L28.9259 16.4294L28.2085 14.8376L28.169 14.7508C26.7341 11.6394 19.4736 13.0504 13.0274 16.0532C6.58114 19.056 0.794955 23.7194 2.21908 26.8271L2.2693 26.9356L3.60016 29.8516C4.80547 32.4745 10.1719 31.8776 15.6963 29.819L16.5249 29.5006C17.1228 29.2595 17.7207 29.005 18.3185 28.7373L18.7382 28.5564C19.0647 28.4044 19.3839 28.2489 19.6996 28.0897C21.4563 27.2238 23.1428 26.2198 24.7432 25.0869C25.371 24.6455 25.9557 24.1861 26.4902 23.7302C27.2952 23.0595 28.0242 22.3012 28.6641 21.4691C28.9419 21.0974 29.1822 20.6986 29.3815 20.2788C29.8012 19.3816 29.8873 18.5278 29.5429 17.768ZM23.0859 20.8359C22.1286 21.5334 21.1347 22.1783 20.1085 22.7679C19.1221 23.3395 18.0423 23.9075 16.88 24.4538L16.8334 24.4755C16.3922 24.6817 15.9581 24.8698 15.5313 25.0543C10.9037 27.0224 7.11564 27.6447 4.93102 27.4023C6.28699 25.398 9.66256 22.587 14.9071 20.1413C20.1516 17.6957 24.4598 16.9323 26.8561 17.1928C26.1315 18.2456 24.8652 19.5118 23.0752 20.8359H23.0859Z" fill="white"/>
</g>
<defs>
<clipPath id="clip0_736_5133">
<rect width="43" height="22" fill="white" transform="translate(2 13)"/>
</clipPath>
</defs>
</svg>
