<svg width="65" height="64" viewBox="0 0 65 64" fill="none" xmlns="http://www.w3.org/2000/svg">
<path d="M2.5 32C2.5 15.4315 15.9315 2 32.5 2C49.0685 2 62.5 15.4315 62.5 32C62.5 34.5647 62.1782 37.0543 61.5727 39.4305C61.2574 40.6678 59.8397 41.1961 58.7339 40.5577C57.9112 40.0827 57.5361 39.1029 57.7611 38.18C58.244 36.1992 58.5 34.1295 58.5 32C58.5 17.6406 46.8594 6 32.5 6C18.1406 6 6.5 17.6406 6.5 32C6.5 46.3594 18.1406 58 32.5 58C41.3094 58 49.0955 53.6188 53.7982 46.9164C54.4278 46.0192 55.6349 45.6967 56.5841 46.2447C57.5489 46.8017 57.8786 48.0436 57.248 48.9619C51.8409 56.8359 42.7735 62 32.5 62C15.9315 62 2.5 48.5685 2.5 32Z" fill="#23B36E"/>
<path d="M48.8635 19.5368C49.6716 20.2898 49.7163 21.5553 48.9633 22.3635L28.4633 44.3635C28.0698 44.7857 27.5131 45.0174 26.9362 44.999C26.3593 44.9805 25.8185 44.7138 25.4527 44.2672L15.9527 32.6672C15.2529 31.8126 15.3783 30.5525 16.2329 29.8527C17.0874 29.1528 18.3475 29.2782 19.0474 30.1328L27.0972 39.962L46.0368 19.6366C46.7899 18.8284 48.0554 18.7838 48.8635 19.5368Z" fill="#23B36E"/>
</svg>
